<?xml version="1.0" encoding="UTF-8"?>
<svg version="1.1" viewBox="0 0 2048 1483" width="1280" height="1280" xmlns="http://www.w3.org/2000/svg">
<path transform="translate(373,171)" d="m0 0h1298l19 3 17 5 18 8 16 10 13 11 13 13 13 18 8 14 8 18 6 20 3 16 1 11v805l-2 18-5 20-5 15-10 21-8 12-8 10-9 10-12 11-14 10-17 9-20 7-18 4-20 1h-1277l-20-2-15-4-16-6-16-8-13-9-11-9-11-11-10-13-11-18-7-15-7-21-4-20-2-22-1-40v-666l1-74 2-27 5-23 7-20 8-16 9-15 11-13 15-15 15-11 16-9 14-6 19-5zm1269 147m-1230 1 3 2 15 8 16 10 29 17 25 15 29 17 28 17 29 17 28 17 29 17 25 15 22 13 32 19 15 9 49 29 32 19 20 12 29 17 28 17 29 17 25 15 71 42 5-1 20-11 22-13 120-70 26-15 27-16 26-15 24-14 26-15 17-10 125-73 48-28 26-15 22-13 29-17 26-15 20-12 12-7v-1zm-46 133v657l3 7 5 4 7 2h1283l8-4 4-5 1-9v-646l-42 24-24 14-26 15-96 56-26 15-29 17-24 14-26 15-29 17-26 15-27 16-21 12-24 14-26 15-24 14-26 15-53 31-26 15-17 10-48 28-14 7-8-1-20-11-28-17-29-17-28-17-21-12-25-15-22-13-15-9-32-19-25-15-29-17-25-15-59-35-20-12-59-35-45-27-29-17-32-19-15-9-54-32-29-17-6-4z" fill="#FDFDFD"/>
<path transform="translate(355,437)" d="m0 0 12 5 29 17 15 9 24 14 29 17 73 43 25 15 29 17 49 29 25 15 27 16 32 19 25 15 27 16 25 15 29 17 28 17 22 13 76 45 32 19 18 11 12 6 5-1 21-12 20-12 26-15 24-14 26-15 24-14 78-45 22-13 26-15 17-10 29-17 27-16 21-12 52-30 22-13 53-31 24-14 23-13 27-16 25-14 22-13 25-14 28-15h3l1 8v652l-1 15-7 8-11 4-19 1h-1271l-10-3-10-6v-2h-2l-4-7-1-11v-649l1-14zm11 15v657l3 7 5 4 7 2h1283l8-4 4-5 1-9v-646l-42 24-24 14-26 15-96 56-26 15-29 17-24 14-26 15-29 17-26 15-27 16-21 12-24 14-26 15-24 14-26 15-53 31-26 15-17 10-48 28-14 7-8-1-20-11-28-17-29-17-28-17-21-12-25-15-22-13-15-9-32-19-25-15-29-17-25-15-59-35-20-12-59-35-45-27-29-17-32-19-15-9-54-32-29-17-6-4z" fill="#D2D1D6"/>
<path transform="translate(1611,306)" d="m0 0h54l-2 4-14 11-17 11-52 30-29 17-26 15-17 10-58 34-26 15-15 9-29 17-52 30-29 17-26 15-22 13-77 45-48 28-26 15-53 31-14 8-8 4-6-1-29-17-13-8-54-32-58-34-15-9-58-34-17-10-64-38-15-9-29-17-28-17-22-13-15-9-28-17-32-19-28-17-22-13-24-14-29-17-15-9-28-17-6-4v-2l5-1h1030zm31 12m-1230 1 3 2 15 8 16 10 29 17 25 15 29 17 28 17 29 17 28 17 29 17 25 15 22 13 32 19 15 9 49 29 32 19 20 12 29 17 28 17 29 17 25 15 71 42 5-1 20-11 22-13 120-70 26-15 27-16 26-15 24-14 26-15 17-10 125-73 48-28 26-15 22-13 29-17 26-15 20-12 12-7v-1z" fill="#D2D1D6"/>
<path transform="translate(275,225)" d="m0 0v3l-10 15-8 15-8 24-4 18-2 19-1 23v499l1 277 2 24 4 19 7 19 8 15 8 11 11 13 13 12 15 10 19 10 24 8 10 2 10 1 46 1h1194l52-1 18-2 18-5 18-8 14-8 13-10 12-11 9-11 10-15 11-23 5-17 3-20 1-13 1-43v-537l1-193v-56l2 1 3 16 1 11v805l-2 18-5 20-5 15-10 21-8 12-8 10-9 10-12 11-14 10-17 9-20 7-18 4-20 1h-1277l-20-2-15-4-16-6-16-8-13-9-11-9-11-11-10-13-11-18-7-15-7-21-4-20-2-22-1-40v-666l1-74 2-27 5-23 7-20 8-16 9-15z" fill="#D2D1D6"/>
<path transform="translate(373,171)" d="m0 0h1293v1l-1093 1h-120l-85 1-3-2z" fill="#D2D1D6"/>
<path transform="translate(373,171)" d="m0 0h82l-2 2-85 1-3-2z" fill="#D3D2D7"/>
</svg>
